solid OpenSCAD_Model
  facet normal -1 0 0
    outer loop
      vertex 0 45.25 0
      vertex 0 42.75 5
      vertex 0 45.25 10
    endloop
  endfacet
  facet normal -1 0 0
    outer loop
      vertex 0 -2 0
      vertex 0 42.75 5
      vertex 0 45.25 0
    endloop
  endfacet
  facet normal -1 -0 0
    outer loop
      vertex 0 42.75 5
      vertex 0 -2 0
      vertex 0 0.25 5
    endloop
  endfacet
  facet normal -1 0 0
    outer loop
      vertex 0 -2 10
      vertex 0 0.25 5
      vertex 0 -2 0
    endloop
  endfacet
  facet normal -1 0 0
    outer loop
      vertex 0 0.25 5
      vertex 0 -2 10
      vertex 0 0.25 10
    endloop
  endfacet
  facet normal -1 -0 0
    outer loop
      vertex 0 45.25 10
      vertex 0 42.75 5
      vertex 0 42.75 10
    endloop
  endfacet
  facet normal 0 0 1
    outer loop
      vertex 50 45.25 10
      vertex 2 43.25 10
      vertex 50 43.25 10
    endloop
  endfacet
  facet normal -0 0 1
    outer loop
      vertex 0 45.25 10
      vertex 2 43.25 10
      vertex 50 45.25 10
    endloop
  endfacet
  facet normal 0 0 1
    outer loop
      vertex 0 42.75 10
      vertex 2 43.25 10
      vertex 0 45.25 10
    endloop
  endfacet
  facet normal 0 0 1
    outer loop
      vertex 2 43.25 10
      vertex 0 42.75 10
      vertex 2 42.75 10
    endloop
  endfacet
  facet normal 0 0 1
    outer loop
      vertex 2 0.25 10
      vertex 0 0.25 10
      vertex 2 0 10
    endloop
  endfacet
  facet normal -0 0 1
    outer loop
      vertex 2 0 10
      vertex 50 -2 10
      vertex 50 0 10
    endloop
  endfacet
  facet normal 0 0 1
    outer loop
      vertex 2 0 10
      vertex 0 -2 10
      vertex 50 -2 10
    endloop
  endfacet
  facet normal 0 0 1
    outer loop
      vertex 0 -2 10
      vertex 2 0 10
      vertex 0 0.25 10
    endloop
  endfacet
  facet normal 1 0 0
    outer loop
      vertex 2 0.25 10
      vertex 2 0 10
      vertex 2 0.25 5
    endloop
  endfacet
  facet normal 1 0 0
    outer loop
      vertex 2 42.75 5
      vertex 2 43.25 10
      vertex 2 42.75 10
    endloop
  endfacet
  facet normal 1 0 0
    outer loop
      vertex 2 43.25 10
      vertex 2 42.75 5
      vertex 2 43.25 0
    endloop
  endfacet
  facet normal 1 0 0
    outer loop
      vertex 2 0 0
      vertex 2 42.75 5
      vertex 2 0.25 5
    endloop
  endfacet
  facet normal 1 0 0
    outer loop
      vertex 2 42.75 5
      vertex 2 0 0
      vertex 2 43.25 0
    endloop
  endfacet
  facet normal 1 0 0
    outer loop
      vertex 2 0 0
      vertex 2 0.25 5
      vertex 2 0 10
    endloop
  endfacet
  facet normal 0 -1 0
    outer loop
      vertex 2 43.25 0
      vertex 50 43.25 10
      vertex 2 43.25 10
    endloop
  endfacet
  facet normal 0 -1 -0
    outer loop
      vertex 50 43.25 10
      vertex 2 43.25 0
      vertex 50 43.25 0
    endloop
  endfacet
  facet normal 0 0 -1
    outer loop
      vertex 50 -2 0
      vertex 2 0 0
      vertex 50 0 0
    endloop
  endfacet
  facet normal -0 0 -1
    outer loop
      vertex 2 0 0
      vertex 0 -2 0
      vertex 2 43.25 0
    endloop
  endfacet
  facet normal 0 0 -1
    outer loop
      vertex 0 -2 0
      vertex 2 0 0
      vertex 50 -2 0
    endloop
  endfacet
  facet normal 0 0 -1
    outer loop
      vertex 2 43.25 0
      vertex 50 45.25 0
      vertex 50 43.25 0
    endloop
  endfacet
  facet normal 0 0 -1
    outer loop
      vertex 2 43.25 0
      vertex 0 45.25 0
      vertex 50 45.25 0
    endloop
  endfacet
  facet normal 0 0 -1
    outer loop
      vertex 0 45.25 0
      vertex 2 43.25 0
      vertex 0 -2 0
    endloop
  endfacet
  facet normal 0 1 -0
    outer loop
      vertex 50 0 0
      vertex 2 0 10
      vertex 50 0 10
    endloop
  endfacet
  facet normal 0 1 0
    outer loop
      vertex 2 0 10
      vertex 50 0 0
      vertex 2 0 0
    endloop
  endfacet
  facet normal 1 -0 0
    outer loop
      vertex 50 -2 10
      vertex 50 0 0
      vertex 50 0 10
    endloop
  endfacet
  facet normal 1 0 0
    outer loop
      vertex 50 0 0
      vertex 50 -2 10
      vertex 50 -2 0
    endloop
  endfacet
  facet normal 0 -1 0
    outer loop
      vertex 0 -2 0
      vertex 50 -2 10
      vertex 0 -2 10
    endloop
  endfacet
  facet normal 0 -1 -0
    outer loop
      vertex 50 -2 10
      vertex 0 -2 0
      vertex 50 -2 0
    endloop
  endfacet
  facet normal 1 -0 0
    outer loop
      vertex 50 43.25 10
      vertex 50 45.25 0
      vertex 50 45.25 10
    endloop
  endfacet
  facet normal 1 0 0
    outer loop
      vertex 50 45.25 0
      vertex 50 43.25 10
      vertex 50 43.25 0
    endloop
  endfacet
  facet normal 0 1 -0
    outer loop
      vertex 50 45.25 0
      vertex 0 45.25 10
      vertex 50 45.25 10
    endloop
  endfacet
  facet normal 0 1 0
    outer loop
      vertex 0 45.25 10
      vertex 50 45.25 0
      vertex 0 45.25 0
    endloop
  endfacet
  facet normal 0 -1 0
    outer loop
      vertex 0 42.75 5
      vertex 2 42.75 10
      vertex 0 42.75 10
    endloop
  endfacet
  facet normal 0 -1 -0
    outer loop
      vertex 2 42.75 10
      vertex 0 42.75 5
      vertex 2 42.75 5
    endloop
  endfacet
  facet normal -0 0 1
    outer loop
      vertex 0 42.75 5
      vertex 2 0.25 5
      vertex 2 42.75 5
    endloop
  endfacet
  facet normal 0 0 1
    outer loop
      vertex 2 0.25 5
      vertex 0 42.75 5
      vertex 0 0.25 5
    endloop
  endfacet
  facet normal 0 1 -0
    outer loop
      vertex 2 0.25 5
      vertex 0 0.25 10
      vertex 2 0.25 10
    endloop
  endfacet
  facet normal 0 1 0
    outer loop
      vertex 0 0.25 10
      vertex 2 0.25 5
      vertex 0 0.25 5
    endloop
  endfacet
endsolid OpenSCAD_Model
